HIERARCHY
ROOT Hips
{
	OFFSET -0.001795 -0.223333 0.028219
	CHANNELS 6 Xposition Yposition Zposition Zrotation Yrotation Xrotation 
	JOINT LeftUpLeg
	{
		OFFSET 0.069520 -0.091406 -0.006815
		CHANNELS 3 Zrotation Yrotation Xrotation
		JOINT LeftLeg
		{
			OFFSET 0.034277 -0.375199 -0.004496
			CHANNELS 3 Zrotation Yrotation Xrotation
			JOINT LeftFoot
			{
				OFFSET -0.013596 -0.397961 -0.043693
				CHANNELS 3 Zrotation Yrotation Xrotation
				JOINT LeftToe
				{
					OFFSET 0.026358 -0.055791 0.119288
					CHANNELS 3 Zrotation Yrotation Xrotation
					End Site
					{
						OFFSET 0.000000 0.000000 0.000000
					}
				}
			}
		}
	}
	JOINT RightUpLeg
	{
		OFFSET -0.067670 -0.090522 -0.004320
		CHANNELS 3 Zrotation Yrotation Xrotation
		JOINT RightLeg
		{
			OFFSET -0.038290 -0.382569 -0.008850
			CHANNELS 3 Zrotation Yrotation Xrotation
			JOINT RightFoot
			{
				OFFSET 0.015774 -0.398415 -0.042312
				CHANNELS 3 Zrotation Yrotation Xrotation
				JOINT RightToe
				{
					OFFSET -0.025372 -0.048144 0.123348
					CHANNELS 3 Zrotation Yrotation Xrotation
					End Site
					{
						OFFSET 0.000000 0.000000 0.000000
					}
				}
			}
		}
	}
	JOINT Spine
	{
		OFFSET -0.002533 0.108963 -0.026696
		CHANNELS 3 Zrotation Yrotation Xrotation
		JOINT Spine1
		{
			OFFSET 0.005487 0.135180 0.001092
			CHANNELS 3 Zrotation Yrotation Xrotation
			JOINT Spine2
			{
				OFFSET 0.001457 0.052922 0.025425
				CHANNELS 3 Zrotation Yrotation Xrotation
				JOINT Neck
				{
					OFFSET -0.002778 0.213870 -0.042857
					CHANNELS 3 Zrotation Yrotation Xrotation
					JOINT Head
					{
						OFFSET 0.005152 0.064970 0.051349
						CHANNELS 3 Zrotation Yrotation Xrotation
						End Site
						{
							OFFSET 0.000000 0.000000 0.000000
						}
					}
				}
				JOINT LeftShoulder
				{
					OFFSET 0.078845 0.121749 -0.034090
					CHANNELS 3 Zrotation Yrotation Xrotation
					JOINT LeftArm
					{
						OFFSET 0.090977 0.030469 -0.008868
						CHANNELS 3 Zrotation Yrotation Xrotation
						JOINT LeftForeArm
						{
							OFFSET 0.259612 -0.012772 -0.027456
							CHANNELS 3 Zrotation Yrotation Xrotation
							JOINT LeftHand
							{
								OFFSET 0.249234 0.008986 -0.001171
								CHANNELS 3 Zrotation Yrotation Xrotation
								End Site
								{
									OFFSET 0.000000 0.000000 0.000000
								}
							}
						}
					}
				}
				JOINT RightShoulder
				{
					OFFSET -0.081759 0.118833 -0.038615
					CHANNELS 3 Zrotation Yrotation Xrotation
					JOINT RightArm
					{
						OFFSET -0.096012 0.032551 -0.009143
						CHANNELS 3 Zrotation Yrotation Xrotation
						JOINT RightForeArm
						{
							OFFSET -0.253742 -0.013329 -0.021401
							CHANNELS 3 Zrotation Yrotation Xrotation
							JOINT RightHand
							{
								OFFSET -0.255298 0.007772 -0.005559
								CHANNELS 3 Zrotation Yrotation Xrotation
								End Site
								{
									OFFSET 0.000000 0.000000 0.000000
								}
							}
						}
					}
				}
			}
		}
	}
}
MOTION
Frames: 5
Frame Time: 0.050000
0.131378 0.950263 0.152640 -7.168855 -15.669027 6.374307 0.822254 0.795270 7.596865 2.836331 -0.737950 16.347415 1.078473 2.844310 1.982839 0.000000 0.000000 0.000000 1.827259 6.682408 -39.121671 7.423023 1.392427 48.311886 -7.026444 -18.778238 3.316721 0.000000 0.000000 0.000000 9.390386 -1.243518 9.846743 -0.585792 0.248892 -17.943438 -3.044292 -2.263351 30.600474 10.809357 -6.817730 -25.025275 0.000000 0.000000 0.000000 -5.193669 2.065728 -0.279196 -57.625607 11.625471 -13.238982 -84.150013 -70.258637 77.976132 0.000000 0.000000 0.000000 9.468304 -9.390215 -6.256669 55.499847 -19.146580 -17.140151 38.402488 30.166127 9.830460 0.000000 0.000000 0.000000 
0.129038 0.969105 0.163622 -7.732032 -16.861957 8.263488 2.593293 1.565233 14.800085 2.792362 -0.698042 12.816921 -1.343531 0.215622 11.356015 0.000000 0.000000 0.000000 3.385973 6.982104 -37.826267 2.256281 0.957998 20.146528 -3.357246 -12.758673 8.343309 0.000000 0.000000 0.000000 10.704619 -1.074365 7.017833 0.259703 -0.005988 -18.490511 -3.883982 -4.121325 30.825785 8.973809 -6.577669 -22.284344 0.000000 0.000000 0.000000 -3.327173 2.568064 -0.583772 -54.181610 9.880225 -11.278852 -102.567736 -70.228817 98.464605 0.000000 0.000000 0.000000 7.699282 -11.937174 -7.161410 56.105811 -25.515147 -20.803238 37.937187 26.979074 8.046158 0.000000 0.000000 0.000000 
0.126121 0.974216 0.176362 -6.898060 -17.674744 9.363047 2.563877 1.779870 16.142996 2.792435 -0.569142 20.494005 -3.001655 -1.546885 15.153971 0.000000 0.000000 0.000000 4.312080 6.554985 -34.989964 1.461088 0.158034 6.222819 -0.483773 -8.925126 12.474685 0.000000 0.000000 0.000000 11.026221 -0.745823 3.992161 -0.818095 0.293076 -18.833480 -3.808360 -6.057189 31.511912 6.954998 -6.076013 -19.249164 0.000000 0.000000 0.000000 -2.183704 2.488313 -0.648837 -53.445734 10.251957 -10.811491 -110.151598 -70.168268 108.228405 0.000000 0.000000 0.000000 6.390355 -13.701453 -7.713074 56.184508 -30.092500 -23.551755 39.809158 23.536589 6.733607 0.000000 0.000000 0.000000 
0.123314 0.961839 0.188394 -6.848480 -18.529998 9.065915 2.940349 1.423785 13.683658 3.793216 -0.008093 36.231690 -2.915686 -0.261861 18.132877 0.000000 0.000000 0.000000 6.238068 7.102673 -34.721228 1.949392 0.498746 12.751244 -2.245707 -11.092239 9.286844 0.000000 0.000000 0.000000 12.173072 -0.616940 3.019921 -0.465560 0.153493 -18.245044 -4.543521 -6.383139 32.053432 4.719872 -4.796678 -20.071574 0.000000 0.000000 0.000000 -1.936742 3.355572 -1.041280 -52.926223 9.448434 -10.325352 -108.520252 -71.704673 108.452646 0.000000 0.000000 0.000000 4.746316 -13.370145 -6.943299 58.241392 -29.599364 -24.821124 41.072559 23.584320 6.946357 0.000000 0.000000 0.000000 
0.121837 0.936836 0.195934 -8.451160 -20.555774 7.540804 4.250757 0.922837 9.861038 6.457257 0.672698 53.780233 -4.988827 -3.568642 16.283189 0.000000 0.000000 0.000000 10.149796 7.900064 -33.011080 2.373506 1.880526 26.903089 -4.838550 -14.312390 4.035008 0.000000 0.000000 0.000000 13.668826 -0.923004 5.705352 -1.109282 0.317232 -19.064704 -2.440249 -4.129473 32.834246 4.400547 -4.299667 -21.654835 0.000000 0.000000 0.000000 -4.142841 1.659842 0.021000 -53.073053 8.641391 -10.594162 -102.584871 -73.560325 102.756621 0.000000 0.000000 0.000000 7.712029 -13.506367 -8.080222 56.930442 -27.187277 -22.515739 43.837084 27.283730 9.172170 0.000000 0.000000 0.000000 
